<?xml version="1.0" standalone="no"?>
<!DOCTYPE svg PUBLIC "-//W3C//DTD SVG 20010904//EN"
 "http://www.w3.org/TR/2001/REC-SVG-20010904/DTD/svg10.dtd">
<svg version="1.0" xmlns="http://www.w3.org/2000/svg"
 width="840.000000pt" height="859.000000pt" viewBox="0 0 840.000000 859.000000"
 preserveAspectRatio="xMidYMid meet">
<metadata>
Created by potrace 1.16, written by Peter Selinger 2001-2019
</metadata>
<g transform="translate(0.000000,859.000000) scale(0.100000,-0.100000)"
fill="#ffffff" stroke="none">
<path d="M8375 8511 c-3 -5 -47 -43 -98 -83 -545 -436 -1196 -711 -1743 -735
l-132 -6 -641 -641 -640 -641 170 -145 c185 -157 210 -190 211 -269 0 -57 -19
-99 -62 -135 -28 -23 -41 -26 -103 -26 l-71 0 -163 163 -164 162 -172 -175
c-95 -97 -192 -197 -217 -223 l-44 -47 156 -158 c86 -86 161 -170 167 -185 28
-72 5 -165 -51 -212 -24 -21 -40 -25 -89 -25 -33 0 -72 6 -87 14 -15 8 -92 82
-170 165 l-144 151 -219 -212 c-120 -116 -219 -215 -219 -220 0 -5 71 -81 157
-168 86 -87 162 -169 169 -182 18 -31 17 -113 0 -147 -39 -75 -131 -116 -197
-88 -19 8 -105 83 -192 167 l-159 153 -456 -456 -457 -457 988 -988 c561 -561
991 -983 995 -977 4 6 103 102 221 215 226 216 502 501 763 787 1202 1321
2064 2739 2487 4095 73 235 164 602 200 814 29 171 31 193 31 452 0 249 -4
295 -25 263z m-300 -866 c-311 -1338 -1555 -3232 -3343 -5089 l-124 -129 -125
124 c-68 68 -165 168 -215 221 l-90 98 531 526 c460 455 939 946 1216 1244 43
47 104 112 135 145 223 239 547 613 764 883 594 739 1012 1429 1243 2053 20
56 39 96 41 91 2 -6 -13 -81 -33 -167z"/>
<path d="M2130 3377 l-205 -210 120 -114 120 -113 -1083 -1083 c-863 -863
-1082 -1087 -1082 -1107 0 -39 595 -630 665 -661 210 -93 530 -72 940 61 435
142 934 402 1204 630 186 156 489 547 610 788 23 46 46 82 51 80 5 -2 104 -95
220 -207 l212 -204 204 204 205 205 -843 829 c-464 456 -908 893 -988 971
l-145 142 -205 -211z"/>
</g>
</svg>
