<?xml version="1.0" standalone="no"?>
<!DOCTYPE svg PUBLIC "-//W3C//DTD SVG 20010904//EN"
 "http://www.w3.org/TR/2001/REC-SVG-20010904/DTD/svg10.dtd">
<svg version="1.0" xmlns="http://www.w3.org/2000/svg"
 width="1744.000000pt" height="1280.000000pt" viewBox="0 0 1744.000000 1280.000000"
 preserveAspectRatio="xMidYMid meet">
<metadata>
Created by potrace 1.16, written by Peter Selinger 2001-2019
</metadata>
<g transform="translate(0.000000,1280.000000) scale(0.100000,-0.100000)"
fill="#7b76ff" stroke="none">
<path d="M15725 11663 c-140 -18 -237 -46 -352 -102 -150 -74 -703 -389 -958
-547 -104 -64 -251 -153 -325 -197 -74 -44 -164 -99 -200 -122 -36 -23 -184
-113 -330 -200 -146 -87 -373 -223 -505 -303 -132 -80 -321 -193 -420 -252
-99 -59 -349 -210 -555 -335 -663 -403 -951 -576 -1124 -672 -153 -85 -249
-141 -611 -356 -60 -35 -245 -147 -410 -247 -509 -310 -1479 -890 -1701 -1018
-40 -23 -236 -141 -435 -263 -423 -257 -841 -508 -1054 -633 -82 -49 -181
-108 -220 -131 -38 -23 -119 -71 -180 -105 -184 -105 -852 -508 -985 -594
-112 -72 -424 -262 -825 -504 -239 -143 -736 -464 -1420 -916 -198 -131 -441
-292 -540 -357 -451 -297 -1358 -915 -1795 -1224 -419 -296 -522 -367 -569
-390 l-46 -24 75 -34 c41 -19 113 -51 160 -72 47 -21 121 -58 165 -81 122 -65
462 -197 665 -258 47 -14 150 -41 230 -60 811 -194 1413 -219 2593 -105 120
11 221 19 223 16 11 -10 13 -77 13 -459 l1 -398 606 0 605 0 -3 895 c-3 889
-3 895 -23 889 -67 -20 -162 -49 -240 -75 -216 -69 -703 -179 -1062 -239 -336
-56 -349 -58 -638 -87 -224 -23 -305 -26 -585 -26 -381 0 -650 22 -1009 84
-134 22 -502 107 -514 118 -16 16 55 90 154 159 404 284 383 271 685 467 135
88 292 192 349 230 57 39 294 197 527 352 233 155 464 311 515 345 123 84 130
86 195 59 50 -21 166 -47 388 -88 135 -24 433 -24 600 0 185 28 392 74 500
113 126 46 390 184 520 271 134 90 328 240 431 333 225 204 329 286 504 395
184 115 192 118 511 185 50 11 203 33 340 50 560 68 701 103 989 240 247 118
465 291 698 555 73 83 146 168 162 190 99 134 238 295 294 342 367 303 629
428 988 469 257 29 532 5 613 -54 74 -55 260 -350 470 -747 81 -154 80 -148
23 -181 -26 -15 -106 -61 -178 -104 -71 -42 -186 -109 -255 -149 -69 -41 -147
-87 -175 -104 -27 -17 -133 -80 -235 -140 -102 -60 -345 -205 -540 -322 -195
-117 -416 -247 -490 -289 -74 -43 -204 -119 -288 -169 -84 -50 -241 -136 -350
-192 -157 -80 -198 -105 -200 -122 -3 -17 3 -24 25 -30 15 -4 249 -7 518 -8
487 0 490 0 565 23 106 34 185 75 371 195 90 57 207 128 259 157 52 29 126 73
163 98 38 24 103 62 145 84 43 23 102 57 132 78 47 31 522 317 942 567 206
123 272 193 270 285 0 31 6 63 18 86 18 34 18 42 5 104 -16 80 -71 200 -145
318 -29 47 -81 130 -115 185 -34 55 -77 125 -97 155 -19 30 -75 123 -123 205
-117 201 -258 443 -313 535 -25 41 -56 95 -70 120 -49 89 -95 160 -103 160 -5
0 -9 13 -9 29 0 20 -9 36 -26 50 l-25 20 42 26 c23 15 81 50 128 78 47 28 106
65 131 83 91 64 229 119 373 149 84 17 96 18 250 2 304 -31 298 -31 387 -8
252 66 343 115 545 296 135 121 297 237 406 291 110 54 202 86 439 154 181 52
262 92 396 194 273 209 381 276 586 360 173 72 420 113 748 126 241 10 460 37
568 70 126 39 209 91 304 193 99 104 129 155 184 312 37 105 39 115 39 235 0
122 -1 128 -43 250 -57 164 -100 254 -205 431 -239 405 -420 550 -775 624 -68
14 -257 18 -337 8z m220 -765 c56 -34 115 -86 115 -103 0 -6 14 -32 30 -58 25
-39 30 -58 30 -106 0 -55 -3 -62 -45 -114 -61 -74 -169 -128 -241 -120 -27 3
-65 13 -86 24 -45 23 -108 79 -108 96 0 7 -7 13 -15 13 -8 0 -17 12 -20 28 -3
15 -12 46 -19 68 -13 39 -13 45 10 90 13 27 35 67 49 89 13 22 30 50 36 62 13
25 70 55 114 61 17 2 32 6 35 8 9 10 67 -9 115 -38z"/>
<path d="M7609 3950 c-10 -6 -138 -12 -285 -15 -292 -7 -444 -23 -565 -61 -88
-28 -235 -101 -335 -167 -101 -66 -268 -242 -332 -349 -136 -225 -168 -360
-182 -753 -10 -282 -13 -1835 -4 -1859 6 -14 73 -16 662 -16 l655 0 -5 528
c-7 777 6 1699 26 1832 21 137 25 148 116 331 85 170 167 306 254 420 31 41
56 79 56 86 0 7 -9 17 -19 23 -23 12 -22 12 -42 0z"/>
<path d="M8580 3915 c-147 -18 -232 -41 -324 -86 -124 -61 -212 -126 -308
-223 -157 -160 -249 -320 -300 -523 l-23 -88 0 -1124 c1 -1032 2 -1124 17
-1135 13 -10 437 -11 1890 -9 1030 3 1878 4 1883 4 7 -1 8 349 4 1041 -6 1136
-6 1131 -65 1320 -28 89 -160 332 -221 406 -48 59 -250 219 -348 276 -44 25
-120 62 -170 81 -186 72 -128 68 -1075 71 -662 2 -879 0 -960 -11z m1798
-1457 c79 -44 109 -74 131 -133 24 -65 42 -252 31 -320 -5 -27 -9 -56 -9 -63
-2 -27 -131 -149 -186 -175 -87 -43 -145 -32 -257 51 -118 87 -144 142 -134
282 8 99 32 227 51 274 18 42 42 58 135 86 41 12 80 24 85 25 40 13 100 2 153
-27z"/>
</g>
</svg>
